<svg width="30" height="30" viewBox="0 0 30 30" fill="none" xmlns="http://www.w3.org/2000/svg">
<path fill-rule="evenodd" clip-rule="evenodd" d="M8.95325 0.421252C10.5173 0.349252 11.0159 0.333252 14.9999 0.333252C18.9839 0.333252 19.4826 0.350585 21.0453 0.421252C22.6079 0.491919 23.6746 0.741252 24.6079 1.10259C25.5852 1.47192 26.4719 2.04925 27.2052 2.79592C27.9519 3.52792 28.5279 4.41325 28.8959 5.39192C29.2586 6.32525 29.5066 7.39192 29.5786 8.95192C29.6506 10.5186 29.6666 11.0173 29.6666 14.9999C29.6666 18.9839 29.6493 19.4826 29.5786 21.0466C29.5079 22.6066 29.2586 23.6733 28.8959 24.6066C28.5279 25.5854 27.951 26.4722 27.2052 27.2052C26.4719 27.9519 25.5852 28.5279 24.6079 28.8959C23.6746 29.2586 22.6079 29.5066 21.0479 29.5786C19.4826 29.6506 18.9839 29.6666 14.9999 29.6666C11.0159 29.6666 10.5173 29.6493 8.95325 29.5786C7.39325 29.5079 6.32658 29.2586 5.39325 28.8959C4.41448 28.5279 3.52768 27.9509 2.79458 27.2052C2.04843 26.4728 1.471 25.5864 1.10259 24.6079C0.741252 23.6746 0.493252 22.6079 0.421252 21.0479C0.349252 19.4813 0.333252 18.9826 0.333252 14.9999C0.333252 11.0159 0.350585 10.5173 0.421252 8.95459C0.491919 7.39192 0.741252 6.32525 1.10259 5.39192C1.47155 4.41336 2.04941 3.527 2.79592 2.79458C3.52797 2.04859 4.41388 1.47118 5.39192 1.10259C6.32525 0.741252 7.39192 0.493252 8.95192 0.421252H8.95325ZM20.9266 3.06125C19.3799 2.99059 18.9159 2.97592 14.9999 2.97592C11.0839 2.97592 10.6199 2.99059 9.07325 3.06125C7.64258 3.12659 6.86659 3.36525 6.34925 3.56659C5.66525 3.83325 5.17592 4.14925 4.66259 4.66259C4.17598 5.13599 3.80149 5.71229 3.56659 6.34925C3.36525 6.86659 3.12659 7.64258 3.06125 9.07325C2.99059 10.6199 2.97592 11.0839 2.97592 14.9999C2.97592 18.9159 2.99059 19.3799 3.06125 20.9266C3.12659 22.3573 3.36525 23.1333 3.56659 23.6506C3.80125 24.2866 4.17592 24.8639 4.66259 25.3373C5.13592 25.8239 5.71325 26.1986 6.34925 26.4333C6.86659 26.6346 7.64258 26.8733 9.07325 26.9386C10.6199 27.0093 11.0826 27.0239 14.9999 27.0239C18.9173 27.0239 19.3799 27.0093 20.9266 26.9386C22.3573 26.8733 23.1333 26.6346 23.6506 26.4333C24.3346 26.1666 24.8239 25.8506 25.3373 25.3373C25.8239 24.8639 26.1986 24.2866 26.4333 23.6506C26.6346 23.1333 26.8733 22.3573 26.9386 20.9266C27.0093 19.3799 27.0239 18.9159 27.0239 14.9999C27.0239 11.0839 27.0093 10.6199 26.9386 9.07325C26.8733 7.64258 26.6346 6.86659 26.4333 6.34925C26.1666 5.66525 25.8506 5.17592 25.3373 4.66259C24.8638 4.17601 24.2875 3.80153 23.6506 3.56659C23.1333 3.36525 22.3573 3.12659 20.9266 3.06125ZM13.1266 19.5212C14.1728 19.9568 15.3378 20.0155 16.4225 19.6875C17.5072 19.3596 18.4444 18.6651 19.0741 17.7229C19.7037 16.7807 19.9867 15.6491 19.8746 14.5214C19.7626 13.3937 19.2626 12.3399 18.4599 11.5399C17.9482 11.0286 17.3295 10.637 16.6484 10.3934C15.9672 10.1499 15.2405 10.0604 14.5206 10.1314C13.8007 10.2024 13.1055 10.4322 12.485 10.8041C11.8645 11.176 11.3342 11.6809 10.9323 12.2824C10.5304 12.8839 10.2668 13.567 10.1606 14.2825C10.0544 14.9981 10.1081 15.7283 10.318 16.4206C10.5278 17.1129 10.8886 17.7501 11.3742 18.2862C11.8599 18.8224 12.4584 19.2442 13.1266 19.5212ZM9.66925 9.66925C10.3693 8.96922 11.2003 8.41392 12.115 8.03507C13.0296 7.65621 14.0099 7.46122 14.9999 7.46122C15.9899 7.46122 16.9702 7.65621 17.8849 8.03507C18.7995 8.41392 19.6306 8.96922 20.3306 9.66925C21.0306 10.3693 21.5859 11.2003 21.9648 12.115C22.3436 13.0296 22.5386 14.0099 22.5386 14.9999C22.5386 15.9899 22.3436 16.9702 21.9648 17.8849C21.5859 18.7995 21.0306 19.6306 20.3306 20.3306C18.9168 21.7444 16.9993 22.5386 14.9999 22.5386C13.0005 22.5386 11.083 21.7444 9.66925 20.3306C8.25547 18.9168 7.46122 16.9993 7.46122 14.9999C7.46122 13.0005 8.25547 11.083 9.66925 9.66925ZM24.2106 8.58392C24.3841 8.42028 24.5229 8.22349 24.619 8.00522C24.715 7.78694 24.7663 7.55161 24.7698 7.31316C24.7733 7.07471 24.7289 6.83798 24.6392 6.617C24.5496 6.39602 24.4165 6.19527 24.2479 6.02664C24.0792 5.85801 23.8785 5.72493 23.6575 5.63528C23.4365 5.54562 23.1998 5.50122 22.9613 5.5047C22.7229 5.50817 22.4876 5.55946 22.2693 5.65551C22.051 5.75157 21.8542 5.89045 21.6906 6.06392C21.3723 6.40129 21.1981 6.84941 21.2049 7.31316C21.2116 7.7769 21.3988 8.21976 21.7268 8.54771C22.0547 8.87566 22.4976 9.06289 22.9613 9.06965C23.4251 9.07641 23.8732 8.90217 24.2106 8.58392Z" fill="#575757"/>
</svg>
