<svg width="31" height="26" viewBox="0 0 31 26" fill="none" xmlns="http://www.w3.org/2000/svg">
<path d="M30.5239 3.58269C29.4106 4.07602 28.2146 4.40935 26.9573 4.56002C28.2546 3.78374 29.2252 2.56198 29.6879 1.12269C28.4691 1.84667 27.1351 2.35628 25.7439 2.62935C24.8084 1.63051 23.5693 0.968456 22.219 0.745987C20.8687 0.523517 19.4827 0.753077 18.2763 1.39902C17.0698 2.04497 16.1103 3.07117 15.5468 4.31829C14.9833 5.56542 14.8473 6.96369 15.1599 8.29602C12.6902 8.17202 10.2741 7.53009 8.0685 6.41189C5.8629 5.2937 3.91706 3.72424 2.35727 1.80535C1.82393 2.72535 1.51727 3.79202 1.51727 4.92802C1.51667 5.95068 1.76851 6.95768 2.25044 7.85966C2.73237 8.76165 3.42948 9.53074 4.27993 10.0987C3.29364 10.0673 2.3291 9.8008 1.4666 9.32135V9.40135C1.4665 10.8357 1.96264 12.2259 2.87084 13.336C3.77905 14.4462 5.04336 15.2079 6.44927 15.492C5.53431 15.7396 4.57505 15.7761 3.64393 15.5987C4.0406 16.8328 4.81326 17.9121 5.85376 18.6853C6.89425 19.4585 8.15049 19.8869 9.4466 19.9107C7.24638 21.6379 4.52912 22.5748 1.73193 22.5707C1.23644 22.5708 0.741369 22.5419 0.249268 22.484C3.08857 24.3096 6.39372 25.2785 9.76927 25.2747C21.1959 25.2747 27.4426 15.8107 27.4426 7.60269C27.4426 7.33602 27.4359 7.06669 27.4239 6.80002C28.639 5.92132 29.6878 4.83322 30.5213 3.58669L30.5239 3.58269Z" fill="#575757"/>
</svg>
