<svg width="32" height="20" viewBox="0 0 32 20" fill="none" xmlns="http://www.w3.org/2000/svg">
<path fill-rule="evenodd" clip-rule="evenodd" d="M31.2667 1.93075C31.488 1.20275 31.2667 0.666748 30.2067 0.666748H26.7067C25.816 0.666748 25.4053 1.12941 25.1827 1.64008C25.1827 1.64008 23.4027 5.90141 20.8813 8.66941C20.0653 9.47208 19.6947 9.72675 19.2493 9.72675C19.0267 9.72675 18.692 9.47208 18.692 8.74275V1.93075C18.692 1.05608 18.4467 0.666748 17.7053 0.666748H12.2013C11.6453 0.666748 11.3107 1.07208 11.3107 1.45741C11.3107 2.28541 12.572 2.47741 12.7013 4.80808V9.87208C12.7013 10.9827 12.4973 11.1841 12.052 11.1841C10.8653 11.1841 7.97867 6.90275 6.26533 2.00408C5.93333 1.05075 5.59733 0.666748 4.70267 0.666748H1.2C0.2 0.666748 0 1.12941 0 1.64008C0 2.54941 1.18667 7.06675 5.52667 13.0414C8.42 17.1214 12.4933 19.3334 16.204 19.3334C18.4293 19.3334 18.704 18.8427 18.704 17.9961V14.9121C18.704 13.9294 18.9147 13.7334 19.62 13.7334C20.14 13.7334 21.0293 13.9894 23.1067 15.9561C25.48 18.2881 25.8707 19.3334 27.2067 19.3334H30.7067C31.7067 19.3334 32.208 18.8427 31.92 17.8721C31.6027 16.9067 30.4693 15.5054 28.9667 13.8427C28.1507 12.8961 26.9267 11.8761 26.5547 11.3654C26.036 10.7107 26.184 10.4187 26.5547 9.83608C26.5547 9.83608 30.8213 3.93475 31.2653 1.93075H31.2667Z" fill="#575757"/>
</svg>
